<svg xmlns="http://www.w3.org/2000/svg" version="1.1" xmlns:xlink="http://www.w3.org/1999/xlink" xmlns:svgjs="http://svgjs.dev/svgjs" width="1456" height="573" preserveAspectRatio="none" viewBox="0 0 1456 573"><g mask="url(&quot;#SvgjsMask1044&quot;)" fill="none"><path d="M22.06 436.58 a28.98 28.98 0 1 0 57.96 0 a28.98 28.98 0 1 0 -57.96 0z" fill="rgba(32, 48, 222, 0.52)"></path><path d="M1204.52 328.94L1236.98 328.94L1236.98 329.31L1204.52 329.31z" stroke="rgba(32, 48, 222, 0.52)"></path><path d="M601.54 275.98L641.98 275.98L641.98 280.92L601.54 280.92z" stroke="rgba(32, 48, 222, 0.52)"></path><path d="M117.87 226.41 a7.29 7.29 0 1 0 14.58 0 a7.29 7.29 0 1 0 -14.58 0z" stroke="rgba(32, 48, 222, 0.52)"></path><path d="M1108.26 492.57 a28.43 28.43 0 1 0 56.86 0 a28.43 28.43 0 1 0 -56.86 0z" fill="rgba(32, 48, 222, 0.52)"></path><path d="M20.71 201.78L38.68 201.78L38.68 219.75L20.71 219.75z" stroke="rgba(32, 48, 222, 0.52)"></path><path d="M333.5 291.37L361.66 291.37L361.66 319.53L333.5 319.53z" stroke="rgba(32, 48, 222, 0.52)"></path><path d="M800.89 398.73L845.07 398.73L845.07 418.04L800.89 418.04z" stroke="rgba(32, 48, 222, 0.52)"></path><path d="M1251.01 101.69L1299.47 101.69L1299.47 138.78L1251.01 138.78z" fill="rgba(32, 48, 222, 0.52)"></path><path d="M1334.86 407.22L1335.85 407.22L1335.85 414.95L1334.86 414.95z" stroke="rgba(32, 48, 222, 0.52)"></path><path d="M782.58 159.07a28.4 28.4 0 1 0 52.25-22.27z" stroke="rgba(32, 48, 222, 0.52)"></path><path d="M1275.23 53.45a19.19 19.19 0 1 0-34.16-17.49z" fill="rgba(32, 48, 222, 0.52)"></path><path d="M1248.7 133.07L1253.97 133.07L1253.97 137.67L1248.7 137.67z" fill="rgba(32, 48, 222, 0.52)"></path><path d="M916.25 104.18L947.45 104.18L947.45 135.38L916.25 135.38z" fill="rgba(32, 48, 222, 0.52)"></path><path d="M452.09 104.44a30.11 30.11 0 1 0-58.81-12.97z" stroke="rgba(32, 48, 222, 0.52)"></path><path d="M393.12 5.94L406.41 5.94L406.41 15.06L393.12 15.06z" stroke="rgba(32, 48, 222, 0.52)"></path><path d="M1274.33 455.22L1291.08 455.22L1291.08 471.97L1274.33 471.97z" stroke="rgba(32, 48, 222, 0.52)"></path><path d="M1170.8 305.09L1179.42 305.09L1179.42 321.63L1170.8 321.63z" fill="rgba(32, 48, 222, 0.52)"></path><path d="M737.33 281.85a47.32 47.32 0 1 0 57.35 75.29z" fill="rgba(32, 48, 222, 0.52)"></path><path d="M1205.42 357.24L1221.36 357.24L1221.36 408.38L1205.42 408.38z" stroke="rgba(32, 48, 222, 0.52)"></path><path d="M732.11 463.24a34.26 34.26 0 1 0-61.32-30.58z" fill="rgba(32, 48, 222, 0.52)"></path><path d="M525.13 256.23a2.76 2.76 0 1 0 5.48-0.72z" fill="rgba(32, 48, 222, 0.52)"></path><path d="M657.49 503.7a52.78 52.78 0 1 0 89.02-56.74z" stroke="rgba(32, 48, 222, 0.52)"></path><path d="M392.16 142.58a23.32 23.32 0 1 0-46.42-4.5z" fill="rgba(32, 48, 222, 0.52)"></path><path d="M1285.95 234.31L1315.71 234.31L1315.71 276.59L1285.95 276.59z" fill="rgba(32, 48, 222, 0.52)"></path><path d="M422.22 286.76L451.59 286.76L451.59 325.79L422.22 325.79z" fill="rgba(32, 48, 222, 0.52)"></path><path d="M849.03 447.94L867.84 447.94L867.84 466.75L849.03 466.75z" fill="rgba(32, 48, 222, 0.52)"></path><path d="M141.69 470.98 a9.34 9.34 0 1 0 18.68 0 a9.34 9.34 0 1 0 -18.68 0z" fill="rgba(32, 48, 222, 0.52)"></path><path d="M211.9 205.62L244.62 205.62L244.62 238.34L211.9 238.34z" stroke="rgba(32, 48, 222, 0.52)"></path><path d="M490.95 356.47a50.58 50.58 0 1 0 98.6 22.64z" fill="rgba(32, 48, 222, 0.52)"></path><path d="M2.58 82.05a32.36 32.36 0 1 0 44.28-47.2z" stroke="rgba(32, 48, 222, 0.52)"></path><path d="M274.43 524.92L329.76 524.92L329.76 565.51L274.43 565.51z" fill="rgba(32, 48, 222, 0.52)"></path></g><defs><mask id="SvgjsMask1044"><rect width="1456" height="573" fill="#ffffff"></rect></mask></defs></svg>